<?xml version="1.0" standalone="no"?><!DOCTYPE svg PUBLIC "-//W3C//DTD SVG 1.1//EN" "http://www.w3.org/Graphics/SVG/1.1/DTD/svg11.dtd"><svg t="1623571616575" class="icon" viewBox="0 0 1024 1024" version="1.1" xmlns="http://www.w3.org/2000/svg" p-id="2632" width="48" height="48" xmlns:xlink="http://www.w3.org/1999/xlink"><defs><style type="text/css"></style></defs><path d="M69.316923 0c6.931692 1.102769 14.020923 1.575385 20.716308 3.465846 11.185231 3.308308 22.449231 6.616615 33.004307 11.500308 19.298462 9.058462 39.148308 17.486769 56.241231 30.72 8.113231 6.222769 15.832615 12.918154 23.945846 19.140923 1.811692 1.339077 4.411077 2.363077 6.695385 2.520615 32.531692 1.969231 64.984615 4.332308 96.492308 13.942154 20.322462 6.144 38.281846 16.384 56.24123 27.175385A767.212308 767.212308 0 0 1 504.123077 215.355077c21.425231 20.795077 40.408615 44.189538 59.234461 67.505231 21.188923 26.308923 41.984 53.169231 56.871385 83.731692 10.712615 22.055385 18.904615 45.292308 29.144615 67.584 21.267692 45.686154 43.008 90.978462 64.59077 136.349538 5.986462 12.603077 12.524308 24.812308 18.589538 37.257847 3.465846 7.168 8.822154 12.524308 16.226462 14.808615 59.392 18.432 110.355692 51.278769 157.853538 90.427077 12.130462 10.003692 24.812308 19.456 37.179077 29.144615 9.137231 7.089231 17.171692 15.281231 23.945846 24.891077 5.041231 7.168 10.870154 13.863385 16.541539 20.637539 2.914462 3.544615 2.520615 5.907692-2.599385 7.640615-18.747077 6.380308-37.494154 12.839385-57.344 15.753846-22.764308 3.308308-45.292308 8.113231-67.977846 12.209231-6.537846 1.181538-13.154462 2.126769-21.110154 3.387077 2.048 3.465846 3.465846 7.010462 5.671385 9.767385 11.106462 13.627077 24.576 24.812308 40.172307 32.846769 32.768 16.856615 60.416 40.172308 85.779693 66.402461 9.294769 9.609846 17.801846 20.007385 26.781538 29.932308 3.938462 4.174769 8.113231 8.034462 12.209231 11.894154 7.876923 7.325538 14.651077 15.202462 14.729846 27.490461-1.260308-0.315077-2.678154-0.393846-3.780923-0.94523-11.972923-5.986462-23.709538-12.288-35.761231-18.038154-48.206769-22.843077-96.571077-45.134769-144.620307-68.214154-30.798769-14.966154-60.731077-31.744-91.766154-46.316308-49.860923-23.394462-100.430769-45.371077-150.449231-68.529231-40.96-18.904615-80.344615-40.644923-115.475692-69.238153-37.257846-30.247385-67.899077-66.402462-95.625847-105.314462-33.240615-46.631385-61.44-96.492308-89.718153-146.195692-22.528-39.463385-43.795692-79.950769-71.68-116.027077-21.425231-27.963077-45.528615-53.956923-68.529231-80.738462-3.780923-4.411077-7.876923-8.664615-12.681846-13.942154 0.393846 2.284308 0.472615 3.229538 0.787692 4.17477 9.924923 33.870769 26.781538 63.803077 51.436308 89.00923 12.445538 12.681846 16.541538 26.545231 10.318769 43.323077-4.174769 11.421538-7.483077 23.236923-12.051692 34.500923-6.931692 17.171692-9.452308 35.446154-13.39077 53.32677-5.513846 25.206154-2.520615 50.176-0.236307 75.382154 1.890462 20.716308 3.859692 41.353846 11.579077 60.809846 5.907692 14.808615 13.233231 29.144615 20.322461 43.480615 3.308308 6.616615 9.058462 11.027692 15.753846 14.178462 5.750154 2.756923 7.798154 2.048 8.979693-4.411077 1.339077-7.168 2.126769-14.493538 3.150769-21.819077 2.363077-17.486769 3.780923-35.288615 7.561846-52.539077 4.489846-20.48 12.760615-39.699692 27.332923-55.611077 5.513846-5.986462 10.24-12.681846 15.753846-19.613539 0.945231 1.575385 1.969231 2.914462 2.363077 4.332308 15.911385 50.963692 40.96 97.673846 67.899077 143.36 20.716308 35.288615 41.826462 70.577231 70.340923 100.509539 8.900923 9.294769 19.062154 17.329231 28.672 25.915077 0.945231 0.787692 2.363077 1.102769 3.623385 1.654153l-1.811693 2.441847c-3.072-1.339077-6.537846-2.126769-8.979692-4.17477a759.177846 759.177846 0 0 1-28.593231-24.49723c-20.952615-18.983385-41.747692-38.203077-62.621538-57.265231a231.108923 231.108923 0 0 1-42.141539-52.775385c-6.774154-11.342769-11.500308-23.788308-17.171692-35.682461a268.051692 268.051692 0 0 0-7.561846-14.729847c-0.787692-1.417846-2.441846-2.363077-3.702154-3.544615-0.866462 1.575385-2.363077 3.229538-2.599384 5.041231-0.945231 6.380308-1.339077 12.918154-2.284308 19.377231-2.284308 16.068923-4.411077 32.137846-7.246769 48.04923a55.217231 55.217231 0 0 1-12.681847 25.363693c-8.507077 10.24-19.613538 11.500308-31.901538 10.24-16.541538-1.811692-27.963077-10.870154-38.203077-23.236923-27.017846-32.768-39.857231-71.286154-45.449846-112.403693a366.276923 366.276923 0 0 1 0.157538-106.102154c2.205538-13.784615 6.616615-27.175385 10.24-40.723692 3.072-11.500308 6.301538-22.843077 9.767385-34.185846a65.614769 65.614769 0 0 1 5.828923-12.681846c2.284308-3.938462 2.363077-7.561846-1.417846-10.24-12.996923-9.452308-20.322462-23.158154-28.672-36.391385-22.291692-35.446154-34.658462-75.067077-48.128-114.215384a396.839385 396.839385 0 0 1-7.246769-23.945847 106.732308 106.732308 0 0 0-12.288-27.805538 746.180923 746.180923 0 0 0-51.515077-71.128615 112.009846 112.009846 0 0 1-22.843077-44.740923L0 64.354462V49.230769C0.708923 46.237538 1.260308 43.086769 2.126769 40.172308 7.719385 20.716308 18.904615 6.459077 39.384615 1.575385 42.929231 0.787692 46.631385 0.472615 50.254769 0H69.316923z m127.842462 176.206769c2.441846 3.702154 4.726154 6.774154 6.695384 10.003693 10.712615 17.092923 21.346462 34.264615 32.137846 51.357538 0.787692 1.417846 2.599385 3.387077 3.702154 3.308308 14.966154-1.890462 27.726769-17.329231 24.024616-30.72-3.938462-14.336-12.996923-25.363692-23.000616-35.761231-9.294769-9.688615-20.007385-10.633846-31.665231-5.513846-4.174769 1.811692-7.876923 4.804923-11.894153 7.325538z" fill="#449EFE" p-id="2633"></path></svg>